<svg id="emoji" viewBox="11 11 50 50" xmlns="http://www.w3.org/2000/svg" width="512" height="512">
  <g id="line">
    <circle cx="36" cy="36" r="23" fill="none" stroke="#ffffff" stroke-miterlimit="10" stroke-width="2"/>
    <path fill="none" stroke="#ffffff" stroke-linecap="round" stroke-linejoin="round" stroke-miterlimit="10" stroke-width="2" d="M26.5,48c1.8768-3.8326,5.8239-6.1965,10-6c3.8343,0.1804,7.2926,2.4926,9,6"/>
    <path stroke="#ffffff" fill="#ffffff" d="M30,31c0,1.6568-1.3448,3-3,3c-1.6553,0-3-1.3433-3-3c0-1.6552,1.3447-3,3-3C28.6552,28,30,29.3448,30,31"/>
    <path stroke="#ffffff" fill="#ffffff" d="M48,31c0,1.6568-1.3447,3-3,3s-3-1.3433-3-3c0-1.6552,1.3447-3,3-3S48,29.3448,48,31"/>
  </g>
</svg>
